<svg xmlns="http://www.w3.org/2000/svg" xmlns:xlink="http://www.w3.org/1999/xlink" width="78.462" height="97.816" version="1"><defs><linearGradient xlink:href="#a" id="e" gradientUnits="userSpaceOnUse" x1="286.296" y1="238.838" x2="220.467" y2="238.838" gradientTransform="matrix(.648 0 0 .648 84.242 99.24)"/><linearGradient xlink:href="#a" id="d" gradientUnits="userSpaceOnUse" x1="286.296" y1="238.838" x2="220.467" y2="238.838" gradientTransform="matrix(.648 0 0 .648 84.242 99.24)"/><linearGradient id="a"><stop offset="0" stop-color="#a00"/><stop offset="1" stop-color="#a00" stop-opacity="0"/></linearGradient><linearGradient xlink:href="#a" id="c" gradientUnits="userSpaceOnUse" x1="286.296" y1="238.838" x2="220.467" y2="238.838" gradientTransform="matrix(.648 0 0 .648 84.242 99.24)"/></defs><g transform="matrix(.419 0 0 .419 -60.993 -59.484)"><g><g fill="#4d4d4d"><path d="M333.047 281.969a93.692 93.692 0 1 1-187.383 0 93.692 93.692 0 1 1 187.383 0z"/><rect width="21.545" rx="3.536" ry="3.536" y="175.172" x="228.583" height="18.467"/><rect width="32.625" rx="8.936" ry="8.936" y="162.84" x="223.043" height="17.871"/></g><rect width="48.015" rx="18.775" ry="11.696" y="145.624" x="216.066" height="24.623" stroke="#4d4d4d" stroke-width="7.133" stroke-linejoin="round" fill="none"/></g><path d="M317.491 281.969a78.135 78.135 0 1 1-156.271 0 78.135 78.135 0 1 1 156.271 0z" fill="#fff"/><rect id="b" width="9.192" rx="3.536" ry="3.536" y="208.96" x="234.759" height="18.385" fill="#4d4d4d"/><use width="744.094" transform="translate(0 125.866)" xlink:href="#b" height="1052.362"/><use width="744.094" transform="matrix(0 -1 1 0 -42.436 521.325)" xlink:href="#b" height="1052.362"/><use width="744.094" transform="matrix(0 -1 1 0 81.308 521.325)" xlink:href="#b" height="1052.362"/><g fill="#808080"><use width="744.094" transform="matrix(.254 .146 -.218 .377 257.753 108.967)" xlink:href="#b" height="1052.362"/><use width="744.094" transform="matrix(.146 .254 -.377 .218 340.677 141.546)" xlink:href="#b" height="1052.362"/><use width="744.094" transform="matrix(.254 -.146 -.218 -.377 257.753 453.161)" xlink:href="#b" height="1052.362"/><use width="744.094" transform="matrix(.146 -.254 -.377 -.218 340.677 420.582)" xlink:href="#b" height="1052.362"/><use width="744.094" transform="matrix(-.254 -.146 .218 -.377 221.029 453.161)" xlink:href="#b" height="1052.362"/><use width="744.094" transform="matrix(-.146 -.254 .377 -.218 138.105 420.582)" xlink:href="#b" height="1052.362"/><use width="744.094" transform="matrix(-.254 .146 .218 .377 221.029 109.402)" xlink:href="#b" height="1052.362"/><use width="744.094" transform="matrix(-.146 .254 .377 .218 138.105 141.981)" xlink:href="#b" height="1052.362"/></g><path d="M239.631 229.68c-1.932.008-3.893.111-5.873.324-.611.021-1.16.381-1.422.934s-.192 1.206.18 1.692.984.723 1.586.615c14.978-1.612 28.266 2.907 39.146 13.325.405.472 1.043.672 1.645.518.602-.155 1.064-.638 1.192-1.246.128-.608-.101-1.237-.59-1.621-10.068-9.64-22.341-14.594-35.865-14.541z" fill="url(#c)"/><path d="M244.391 239.299c-.814.119-1.412.825-1.397 1.647.015.822.64 1.505 1.457 1.593 8.328 1.076 15.002 4.128 21.284 9.7.677.598 1.71.535 2.309-.142.598-.677.535-1.71-.142-2.309-6.709-5.951-14.131-9.341-23.026-10.49-.161-.024-.325-.024-.486 0z" fill="url(#d)"/><path d="M238.315 220.83c-5.416.148-10.922 1.039-16.404 2.673-.591.141-1.055.599-1.204 1.188-.149.589.041 1.212.494 1.618.453.405 1.093.526 1.662.313 20.871-6.223 41.629-1.023 57.109 14.298.643.638 1.681.633 2.319-.01.638-.643.633-1.681-.01-2.319-12.197-12.071-27.718-18.204-43.966-17.761z" fill="url(#e)"/><path d="M294.156 196.884l-3.182 12.607 12.374 9.546 11.942-6.98c0-6.187-15.831-16.94-21.135-15.172z" fill="#4d4d4d" fill-rule="evenodd"/><path d="M294.026 237.317c-1.095-1.257-67.806 52.861-67.806 52.861l2.537 3.185s66.364-54.79 65.269-56.047z" fill="#1a1a1a" fill-rule="evenodd"/></g></svg>